<svg width="492" height="330" viewBox="0 0 492 330" fill="none" xmlns="http://www.w3.org/2000/svg">
<path d="M266.298 238.245L276.557 312.429H271.749L261.086 238.245H266.298Z" fill="white"/>
<path d="M268.222 238.245L278.481 312.429H274.315L263.652 238.245H268.222Z" fill="#E2EAF7"/>
<path d="M229.179 238.245L218.92 312.429H223.728L234.391 238.245H229.179Z" fill="#E2EAF7"/>
<path d="M227.253 238.245L216.994 312.429H221.162L231.823 238.245H227.253Z" fill="white"/>
<path d="M278.665 238.245L268.406 312.429H273.215L283.877 238.245H278.665Z" fill="#E2EAF7"/>
<path d="M276.739 238.245L266.48 312.429H270.647L281.309 238.245H276.739Z" fill="white"/>
<path d="M316.29 238.245L326.548 312.429H321.74L311.078 238.245H316.29Z" fill="white"/>
<path d="M318.215 238.245L328.472 312.429H324.306L313.645 238.245H318.215Z" fill="#E2EAF7"/>
<path d="M270.793 234.537L268.406 233.592C272.699 222.76 277.281 198.135 277.327 197.889L279.851 198.356C279.662 199.376 275.178 223.474 270.793 234.537Z" fill="#E2EAF7"/>
<path d="M268.867 234.537L266.48 233.592C270.773 222.76 275.355 198.135 275.401 197.889L277.925 198.356C277.737 199.376 273.252 223.474 268.867 234.537Z" fill="white"/>
<path d="M317.309 234.537L314.922 233.592C319.215 222.76 323.796 198.135 323.843 197.889L326.367 198.356C326.178 199.376 321.693 223.474 317.309 234.537Z" fill="#E2EAF7"/>
<path d="M315.383 234.537L312.996 233.592C317.289 222.76 321.871 198.135 321.917 197.889L324.441 198.356C324.252 199.376 319.767 223.474 315.383 234.537Z" fill="white"/>
<path d="M221.848 232.811H283.729V239.499H225.846C223.64 239.499 221.848 237.708 221.848 235.502V232.811Z" fill="#A24E65"/>
<path d="M283.729 232.811H321.777V234.144C321.777 237.099 319.378 239.498 316.422 239.498H283.729V232.81V232.811Z" fill="#7B2E40"/>
<path d="M283.013 151.563L273.615 195.035C273.222 196.854 274.582 198.582 276.443 198.628L329.56 199.941C330.988 199.976 332.238 198.991 332.536 197.596L342.125 152.811C342.52 150.964 341.112 149.223 339.221 149.223H285.915C284.517 149.223 283.309 150.197 283.013 151.563Z" fill="#7B2E40"/>
<path d="M279.25 151.563L269.851 195.035C269.458 196.854 270.818 198.582 272.68 198.628L325.797 199.941C327.224 199.976 328.474 198.991 328.773 197.596L338.361 152.811C338.756 150.964 337.348 149.223 335.458 149.223H282.151C280.753 149.223 279.545 150.197 279.25 151.563Z" fill="#A24E65"/>
<path d="M261.993 84.1735C261.993 84.1735 270.793 79.8624 277.751 83.5454C288.04 88.9904 287.815 96.2351 286.583 110.201C285.447 123.071 293.711 128.284 299.427 136.01C305.143 143.736 304.928 168.526 269.256 165.117C233.584 161.708 250.388 142.202 254.737 132.59C259.087 122.977 253.587 105.857 251.312 98.7874C249.909 94.4258 253.252 84.1282 261.993 84.1735Z" fill="#1F253F"/>
<path d="M215.862 219.576C221.163 224.462 229.308 228.412 235.094 230.829C239.228 232.556 243.66 233.444 248.139 233.434L259.28 233.411C259.28 233.411 209.512 213.723 215.863 219.576H215.862Z" fill="#13192B"/>
<path d="M199.586 228.951L208.456 252.81L220.037 283.963C220.037 283.963 223.18 284.267 226.19 283.402C228.96 282.601 232.14 280.507 232.14 280.507C232.14 280.507 229.732 247.056 223.733 227.855C222.196 222.927 219.665 218.94 217.764 216.696C208.465 205.71 199.586 228.951 199.586 228.951Z" fill="#13192B"/>
<path d="M210.462 195.325C216.273 193.451 231.279 194.908 247.642 194.85L251.128 189.102L287.091 186.295C287.091 186.295 296.611 200.007 293.52 221.293C292.427 228.822 286.332 232.918 280.272 232.918C276.061 232.918 261.93 233.446 254.979 233.446C237.094 233.446 221.739 224.306 219.279 223.362C216.987 222.482 208.704 234.864 202.825 242.742C192.978 255.936 166.736 278.336 166.736 278.336C166.736 278.336 161.716 276.475 159.462 275.63C157.037 274.722 156.15 273.54 156.15 273.54C156.15 273.54 197.356 199.551 210.462 195.325Z" fill="#1F253F"/>
<path d="M260.44 134.269C258.099 136.348 264.252 139.559 268.885 139.175C273.822 138.766 279.653 125.578 279.593 125.575C277.773 125.491 275.777 123.901 274.238 113.469L273.464 113.746L260.438 118.431C260.438 118.431 261.992 122.562 261.992 126.587C261.992 128.952 261.076 133.702 260.438 134.269H260.44Z" fill="#F5AE84"/>
<path d="M260.221 118.96C260.221 118.96 261.054 119.55 261.672 123.141C267.655 122.449 273.513 119.564 274.566 115.521L260.221 118.96Z" fill="#E59C77"/>
<path d="M256.129 119.359C256.129 119.359 272.856 123.767 275.651 112.928C278.446 102.089 281.627 95.0886 270.675 91.5953C259.722 88.102 256.495 91.6817 254.682 95.0728C252.869 98.4639 249.602 117.989 256.129 119.358V119.359Z" fill="#F5AE84"/>
<path d="M259.388 90.1644C259.388 90.1644 274.58 95.1541 277.038 106.618C278.672 114.241 281.66 109.608 281.66 109.608C281.66 109.608 278.931 104.328 278.79 97.6147C278.749 95.6357 277.655 93.8263 275.905 92.9C270.991 90.2972 263.143 86.4213 259.387 90.1644H259.388Z" fill="#1F253F"/>
<path d="M260.22 90.4616C260.22 90.4616 255.739 92.919 254.249 97.6853C252.716 102.59 252.544 103.324 252.416 105.993C252.416 105.993 251.455 93.0328 256.748 89.178C262.359 85.0893 260.22 90.4616 260.22 90.4616Z" fill="#1F253F"/>
<path d="M247.066 159.837C251.217 181.776 248.247 190.439 251.16 191.781C252.302 192.308 254.783 193.096 258.301 193.328C269.362 194.062 288.807 192.241 289.546 190.197C292.097 183.128 290.296 180.93 292.425 170.107C292.647 168.956 292.921 167.71 293.244 166.352C295.019 158.918 296.746 156.389 290.449 144.445C284.739 133.626 278.807 124.846 278.274 125.163C272.624 128.515 266.586 138.682 264.23 138.126C261.732 137.535 261.993 126.589 261.993 126.589C261.993 126.589 243.796 142.554 247.065 159.837H247.066Z" fill="#537A9B"/>
<path d="M208.455 252.811L220.734 287.066C220.734 287.066 223.526 286.391 226.535 285.525C229.306 284.724 232.485 282.63 232.485 282.63C232.485 282.63 229.731 247.057 223.732 227.855L208.455 252.81V252.811Z" fill="#1F253F"/>
<path d="M261.993 126.586C261.993 126.586 246.081 130.716 244.26 137.388C242.44 144.059 232.139 181.776 232.139 181.776C232.139 181.776 239.03 188.065 242.671 184.427C246.311 180.788 256.327 145.792 256.327 145.792L261.993 126.587V126.586Z" fill="#537A9B"/>
<path opacity="0.3" d="M252.732 192.68C264.187 194.981 288.807 192.241 289.548 190.197C292.099 183.127 290.298 180.93 292.427 170.107L284.443 156.366C284.443 156.366 292.211 172.955 287.277 177.354C282.348 181.752 262.84 184.701 260.442 188.375C259.286 190.138 252.955 191.259 252.732 192.68Z" fill="#1F253F"/>
<path d="M271.276 185.925C271.276 185.925 264.777 185.153 260.64 184.516C256.504 183.88 251.595 186.743 250.322 187.833C249.05 188.923 251.004 190.195 252.231 189.014C252.231 189.014 249.68 190.005 250.232 190.74C250.783 191.474 253.004 191.285 254.004 190.422C254.004 190.422 252.367 191.058 252.958 191.694C253.548 192.33 255.094 192.694 256.321 191.694C257.548 190.694 259.957 189.422 261.548 190.331C263.139 191.239 270.32 192.314 270.32 192.314C270.32 192.314 269.737 190.154 271.274 185.923L271.276 185.925Z" fill="#F5AE84"/>
<path d="M278.283 125.154C278.283 125.154 291.355 126.121 296.427 133.193C303.567 143.147 318.422 184.659 310.305 190.317C301.162 196.69 269.588 192.833 269.588 192.833C269.588 192.833 268.891 187.473 268.885 185.633C268.877 183.392 294.427 179.656 295.759 177.657C296.644 176.332 282.976 155.855 282.976 152.475C282.976 149.094 278.282 125.155 278.282 125.155L278.283 125.154Z" fill="#537A9B"/>
<path d="M154.768 277.692C154.768 277.692 156.279 277.51 158.648 272.687L166.511 277.173C166.511 277.173 164.289 282.626 162.786 285.371L154.768 277.693V277.692Z" fill="#F5AE84"/>
<path d="M164.081 283.133C164.081 283.133 159.839 282.449 155.712 276.943C155.712 276.943 150.284 276.419 145.522 276.533C143.329 276.586 141.143 276.192 139.424 275.752C137.362 275.225 135.204 276.124 134.148 277.972L133.657 278.832C133.29 279.475 133.514 280.294 134.157 280.662L158.424 294.506C159.067 294.873 159.886 294.65 160.254 294.007L161.778 291.339C161.778 291.339 163.994 287.908 164.081 283.134V283.133Z" fill="#1F253F"/>
<path d="M133.709 280.407L158.869 294.76C159.266 294.987 159.771 294.849 159.997 294.453L160.779 293.085L134.181 277.911L133.4 279.279C133.173 279.675 133.312 280.18 133.708 280.407H133.709Z" fill="#DADADA"/>
<path d="M153.331 279.765L153.453 279.759C153.616 279.75 153.741 279.611 153.732 279.448L153.582 276.69C153.573 276.527 153.434 276.403 153.271 276.411L153.149 276.418C152.986 276.427 152.862 276.566 152.871 276.729L153.02 279.487C153.029 279.649 153.168 279.774 153.331 279.765Z" fill="#1F253F"/>
<path d="M151.521 279.669L151.643 279.662C151.806 279.653 151.93 279.514 151.921 279.351L151.772 276.594C151.763 276.431 151.624 276.306 151.461 276.315L151.339 276.322C151.176 276.33 151.051 276.47 151.06 276.632L151.21 279.39C151.219 279.553 151.358 279.678 151.521 279.669Z" fill="#1F253F"/>
<path d="M149.556 279.56L149.678 279.553C149.841 279.544 149.965 279.405 149.957 279.243L149.807 276.485C149.798 276.322 149.659 276.197 149.496 276.206L149.374 276.213C149.211 276.222 149.086 276.361 149.095 276.523L149.245 279.281C149.254 279.444 149.393 279.569 149.556 279.56Z" fill="#1F253F"/>
<path d="M147.487 279.518L147.61 279.511C147.772 279.502 147.897 279.363 147.888 279.2L147.738 276.442C147.73 276.28 147.59 276.155 147.428 276.164L147.305 276.17C147.143 276.179 147.018 276.318 147.027 276.481L147.177 279.239C147.186 279.402 147.325 279.526 147.487 279.518Z" fill="#1F253F"/>
<path d="M145.472 279.19L145.594 279.184C145.757 279.175 145.882 279.036 145.873 278.873L145.723 276.115C145.714 275.952 145.575 275.828 145.412 275.837L145.29 275.843C145.127 275.852 145.002 275.991 145.011 276.154L145.161 278.912C145.17 279.074 145.309 279.199 145.472 279.19Z" fill="#1F253F"/>
<path d="M163.716 286.27C163.716 286.27 161.396 286.394 158.363 291.706L160.777 293.084C160.777 293.084 163.041 289.902 163.716 286.27Z" fill="#1F253F"/>
<path d="M160.008 282.076C161.047 282.668 162.277 283.186 163.723 283.534C163.994 283.6 164.266 283.433 164.332 283.162C164.397 282.892 164.231 282.62 163.96 282.554C158.117 281.145 156.056 276.705 156.036 276.66C155.921 276.407 155.623 276.293 155.37 276.407C155.116 276.521 155.003 276.82 155.117 277.074C155.186 277.229 156.509 280.08 160.008 282.076Z" fill="#1F253F"/>
<path d="M155.503 273.978L166.495 280.248C166.878 280.466 167.364 280.333 167.582 279.951L169.036 277.405C169.254 277.023 169.121 276.536 168.739 276.318L157.746 270.048C157.364 269.83 156.877 269.963 156.659 270.345L155.206 272.892C154.987 273.274 155.121 273.76 155.503 273.978Z" fill="#13192B"/>
<path d="M223.923 293.55C223.923 293.55 223.96 290.558 221.559 286.288L231.551 283.022C231.551 283.022 231.687 287.067 234.524 290.243L223.924 293.551L223.923 293.55Z" fill="#F5AE84"/>
<path d="M233.189 288.029C233.189 288.029 230.541 291.412 223.723 292.363C223.723 292.363 220.642 296.86 218.441 301.082C217.426 303.027 216.025 304.749 214.81 306.042C213.352 307.592 213.096 309.915 214.205 311.732L214.721 312.578C215.107 313.21 215.933 313.409 216.565 313.024L240.417 298.476C241.05 298.09 241.249 297.265 240.863 296.633L239.262 294.01C239.262 294.01 237.327 290.413 233.188 288.03L233.189 288.029Z" fill="#1F253F"/>
<path d="M216.126 313.29L240.856 298.206C241.246 297.968 241.369 297.46 241.131 297.07L240.31 295.726L214.168 311.671L214.989 313.015C215.227 313.405 215.736 313.529 216.126 313.29Z" fill="#DADADA"/>
<path d="M225.051 295.826L225.104 295.716C225.175 295.569 225.113 295.392 224.967 295.322L222.478 294.12C222.332 294.05 222.155 294.111 222.084 294.258L222.031 294.368C221.96 294.515 222.022 294.691 222.169 294.762L224.657 295.963C224.803 296.034 224.98 295.972 225.051 295.826Z" fill="#1F253F"/>
<path d="M224.092 297.393L224.145 297.282C224.216 297.136 224.154 296.959 224.008 296.888L221.519 295.687C221.373 295.616 221.196 295.678 221.125 295.825L221.072 295.935C221.001 296.081 221.063 296.258 221.21 296.329L223.698 297.53C223.844 297.601 224.021 297.539 224.092 297.393Z" fill="#1F253F"/>
<path d="M223.047 299.059L223.1 298.949C223.171 298.802 223.11 298.626 222.963 298.555L220.475 297.354C220.328 297.283 220.151 297.344 220.08 297.491L220.027 297.601C219.956 297.748 220.018 297.924 220.165 297.995L222.653 299.196C222.8 299.267 222.976 299.206 223.047 299.059Z" fill="#1F253F"/>
<path d="M222.012 300.82L222.065 300.71C222.136 300.563 222.074 300.387 221.928 300.316L219.439 299.115C219.293 299.044 219.116 299.105 219.045 299.252L218.992 299.362C218.921 299.509 218.983 299.685 219.129 299.756L221.618 300.957C221.764 301.028 221.941 300.967 222.012 300.82Z" fill="#1F253F"/>
<path d="M220.75 302.455L220.803 302.345C220.874 302.198 220.813 302.022 220.666 301.951L218.178 300.75C218.031 300.679 217.854 300.74 217.783 300.887L217.73 300.997C217.659 301.144 217.721 301.32 217.868 301.391L220.356 302.592C220.503 302.663 220.679 302.602 220.75 302.455Z" fill="#1F253F"/>
<path d="M235.762 289.863C235.762 289.863 234.75 291.952 237.938 297.174L240.311 295.726C240.311 295.726 238.618 292.208 235.762 289.863Z" fill="#1F253F"/>
<path d="M230.294 291.082C231.316 290.459 232.363 289.632 233.367 288.535C233.555 288.329 233.541 288.01 233.336 287.822C233.13 287.635 232.812 287.649 232.623 287.854C228.566 292.287 223.681 291.944 223.632 291.941C223.354 291.918 223.111 292.125 223.088 292.402C223.065 292.679 223.272 292.923 223.549 292.946C223.719 292.96 226.855 293.18 230.294 291.083V291.082Z" fill="#1F253F"/>
<path d="M221.125 288.843L233.238 285.181C233.66 285.053 233.898 284.608 233.771 284.187L232.922 281.382C232.795 280.96 232.35 280.722 231.928 280.849L219.815 284.512C219.393 284.64 219.155 285.085 219.282 285.506L220.131 288.311C220.259 288.733 220.704 288.971 221.125 288.843Z" fill="#13192B"/>
<path d="M254.738 194.555H202.152L186.65 156.021C186.498 155.645 186.775 155.235 187.181 155.235H237.88C238.459 155.235 238.98 155.586 239.196 156.122L254.738 194.555Z" fill="#FC7C7C"/>
<path d="M201.535 193.022H270.39C271.037 193.022 271.561 193.546 271.561 194.193C271.561 194.84 271.037 195.364 270.39 195.364H203.263C202.608 195.364 202.036 194.922 201.869 194.29L201.535 193.022Z" fill="#FC7C7C"/>
<path d="M215.572 174.168C215.246 173.033 215.903 172.114 217.037 172.114C218.171 172.114 219.356 173.034 219.681 174.168C220.007 175.303 219.35 176.222 218.215 176.222C217.079 176.222 215.895 175.302 215.571 174.168H215.572Z" fill="white"/>
<path d="M387.108 115.912C383.947 117.561 343.633 109.84 343.633 109.84L342.055 118.496C342.055 118.496 374.255 128.754 384.159 129.606C394.062 130.457 390.269 114.262 387.108 115.913V115.912Z" fill="#AD6F4D"/>
<path d="M343.968 109.941C343.968 109.941 338.14 108.157 334.381 107.378C330.622 106.599 325.352 105.779 322.431 104.378C319.51 102.976 318.746 104.838 319.606 105.658C319.606 105.658 319.34 107.036 320.199 107.248C321.059 107.461 323.166 109.693 325.239 110.529C327.312 111.364 334.002 116.363 342.512 118.621L343.967 109.941H343.968Z" fill="#AD6F4D"/>
<path d="M339.744 109.655C339.744 109.655 337.464 106.28 334.473 105.16C331.482 104.04 330.21 103.041 330.033 104.061C329.856 105.081 332.235 106.353 333.527 107.052C334.818 107.752 335.544 111.26 339.743 109.654L339.744 109.655Z" fill="#AD6F4D"/>
<path d="M397.191 78.4854C397.191 78.4854 386.456 85.081 379.973 102.454C379.973 102.454 383.665 111.545 391.589 113.976C391.589 113.976 416.48 87.5521 397.191 78.4854Z" fill="#299EF3"/>
<path d="M388.837 88.4795C388.837 88.4795 382.763 101.58 382.104 112.054L388.837 113.166V88.4795Z" fill="#1883D0"/>
<path d="M408.389 184.614C408.389 184.614 402.025 219.92 396.442 243.504C396.442 243.504 405.462 288.421 407.563 297.782H394.19C394.19 297.782 378.791 260.426 378.791 247.825C378.791 235.224 379.061 194.066 385.365 172.823L411.39 173.634L408.389 184.615V184.614Z" fill="#1F253F"/>
<path d="M405.267 185.694C405.267 185.694 409.987 224.601 413.21 246.204L416.974 299.132H430.256C430.256 299.132 431.202 271.948 432.282 248.184C433.363 224.421 435.163 185.514 434.263 170.572L403.826 172.371L405.267 185.693V185.694Z" fill="#1F253F"/>
<path d="M429.159 300.931L429.759 311.613L419.793 309.753C419.793 309.753 420.334 305.252 420.393 300.511L429.158 300.931H429.159Z" fill="#AD6F4D"/>
<path d="M395.121 307.592C395.121 307.592 396.562 304.112 396.202 298.351H405.927C405.927 298.351 406.632 307.127 406.692 310.487L395.121 307.591V307.592Z" fill="#AD6F4D"/>
<path d="M406.709 307.712C406.709 307.712 402.386 309.333 395.602 306.392C395.602 306.392 390.259 308.793 385.877 311.432C383.858 312.648 381.609 313.445 379.771 313.95C377.566 314.556 376.031 316.543 376.031 318.829V319.894C376.031 320.69 376.676 321.335 377.472 321.335H407.49C408.286 321.335 408.931 320.69 408.931 319.894V316.594C408.931 316.594 409.171 312.213 406.71 307.712H406.709Z" fill="#1F253F"/>
<path d="M408.032 321.334H376.926C376.431 321.334 376.029 320.932 376.029 320.437V318.753H408.928V320.437C408.928 320.932 408.526 321.334 408.031 321.334H408.032Z" fill="#DADADA"/>
<path d="M394.881 310.325L395.003 310.246C395.147 310.153 395.188 309.961 395.096 309.818L393.479 307.313C393.386 307.169 393.194 307.128 393.05 307.22L392.928 307.299C392.784 307.392 392.743 307.584 392.836 307.727L394.452 310.232C394.545 310.376 394.737 310.418 394.881 310.325Z" fill="#1F253F"/>
<path d="M393.123 311.225L393.245 311.146C393.389 311.053 393.431 310.862 393.338 310.718L391.721 308.213C391.628 308.069 391.436 308.028 391.292 308.12L391.17 308.199C391.026 308.292 390.985 308.484 391.078 308.628L392.695 311.133C392.787 311.276 392.979 311.318 393.123 311.225Z" fill="#1F253F"/>
<path d="M391.233 312.169L391.355 312.091C391.499 311.998 391.54 311.806 391.447 311.662L389.83 309.157C389.737 309.013 389.546 308.972 389.402 309.065L389.28 309.144C389.136 309.236 389.094 309.428 389.187 309.572L390.804 312.077C390.897 312.221 391.089 312.262 391.233 312.169Z" fill="#1F253F"/>
<path d="M389.297 313.205L389.419 313.126C389.563 313.034 389.604 312.842 389.512 312.698L387.895 310.193C387.802 310.049 387.61 310.008 387.466 310.101L387.344 310.18C387.2 310.272 387.159 310.464 387.252 310.608L388.869 313.113C388.961 313.257 389.153 313.298 389.297 313.205Z" fill="#1F253F"/>
<path d="M387.225 313.998L387.347 313.919C387.491 313.827 387.532 313.635 387.439 313.491L385.822 310.986C385.73 310.842 385.538 310.801 385.394 310.894L385.272 310.972C385.128 311.065 385.087 311.257 385.179 311.401L386.796 313.906C386.889 314.05 387.081 314.091 387.225 313.998Z" fill="#1F253F"/>
<path d="M408.037 310.833C408.037 310.833 405.939 312.183 405.939 318.754H408.926C408.926 318.754 409.343 314.581 408.037 310.833Z" fill="#1F253F"/>
<path d="M402.344 308.893C403.629 308.893 405.053 308.72 406.588 308.276C406.874 308.193 407.04 307.893 406.957 307.605C406.873 307.318 406.574 307.153 406.286 307.235C400.084 309.031 395.795 305.984 395.753 305.953C395.512 305.777 395.172 305.83 394.996 306.072C394.82 306.314 394.874 306.652 395.115 306.828C395.263 306.936 398.017 308.892 402.343 308.892L402.344 308.893Z" fill="#1F253F"/>
<path d="M429.58 308.733C429.58 308.733 425.438 310.653 419.855 308.733C419.855 308.733 413.131 314.853 413.372 320.044C413.612 325.235 416.433 325.714 419.675 325.955C422.917 326.195 428.38 323.734 430.421 320.044C432.462 316.354 429.58 308.733 429.58 308.733Z" fill="#1F253F"/>
<path d="M425.425 310.196C428.285 310.196 429.794 309.374 429.889 309.321C430.149 309.174 430.242 308.843 430.094 308.583C429.948 308.323 429.62 308.23 429.359 308.377C429.309 308.404 426.085 310.105 420.015 308.215C419.731 308.127 419.426 308.286 419.337 308.571C419.248 308.857 419.408 309.16 419.693 309.249C421.983 309.961 423.897 310.196 425.425 310.196Z" fill="#1F253F"/>
<path d="M419.521 311.056L424.255 312.087C424.389 312.116 424.522 312.031 424.551 311.896L424.576 311.783C424.605 311.649 424.52 311.516 424.385 311.487L419.651 310.457C419.517 310.428 419.384 310.513 419.355 310.647L419.33 310.761C419.301 310.895 419.386 311.027 419.521 311.056Z" fill="#1F253F"/>
<path d="M418.38 312.467L423.114 313.497C423.249 313.526 423.381 313.441 423.41 313.307L423.435 313.194C423.464 313.06 423.379 312.927 423.245 312.898L418.51 311.868C418.376 311.839 418.244 311.924 418.214 312.058L418.19 312.171C418.16 312.305 418.246 312.438 418.38 312.467Z" fill="#1F253F"/>
<path d="M417.386 314.176L422.12 315.206C422.254 315.235 422.387 315.15 422.416 315.016L422.441 314.903C422.47 314.769 422.385 314.636 422.251 314.607L417.516 313.577C417.382 313.548 417.249 313.633 417.22 313.767L417.196 313.88C417.166 314.014 417.251 314.147 417.386 314.176Z" fill="#1F253F"/>
<path d="M415.884 315.887L420.618 316.918C420.752 316.947 420.885 316.862 420.914 316.727L420.939 316.614C420.968 316.48 420.883 316.347 420.749 316.318L416.014 315.288C415.88 315.259 415.747 315.344 415.718 315.478L415.694 315.592C415.664 315.726 415.75 315.858 415.884 315.887Z" fill="#1F253F"/>
<path d="M431.057 317.994C431.057 317.994 425.798 323.615 418.774 322.535C411.749 321.455 413.371 320.045 413.371 320.045C413.371 320.045 412.47 325.808 418.774 325.972C425.077 326.135 430.492 322.395 431.057 317.994Z" fill="#DADADA"/>
<path d="M416.892 302.911H430.682C431.102 302.911 431.441 302.572 431.441 302.153V298.809C431.441 298.39 431.102 298.05 430.682 298.05H416.892C416.473 298.05 416.133 298.39 416.133 298.809V302.153C416.133 302.572 416.473 302.911 416.892 302.911Z" fill="#1F253F"/>
<path d="M393.945 301.292H407.524C408.002 301.292 408.389 300.905 408.389 300.428V297.295C408.389 296.818 408.002 296.431 407.524 296.431H393.945C393.467 296.431 393.08 296.818 393.08 297.295V300.428C393.08 300.905 393.467 301.292 393.945 301.292Z" fill="#1F253F"/>
<path d="M411.391 73.3795C418.536 72.4322 422.392 70.7166 427.434 71.7968C432.476 72.8769 441.504 73.3795 443.629 81.6602C446.353 92.2761 437.506 129.367 437.326 145.569C437.173 159.35 436.043 168.179 435.708 173.101C435.656 173.865 435.034 174.46 434.269 174.484L385.041 175.05C384.034 175.062 383.215 174.246 383.229 173.24C383.309 167.403 383.597 157.089 384.195 136.747C384.915 112.263 378.792 77.699 411.391 73.3785V73.3795Z" fill="#299EF3"/>
<path d="M421.196 70.8853L424.63 71.3489C424.63 71.3489 419.828 77.1964 416.58 79.4083C413.333 81.6202 408.269 83.6361 408.269 83.6361C408.269 83.6361 406.486 82.3821 404.161 77.737C403.695 76.8044 402.9 75.406 402.9 75.406L405.769 73.9286C405.769 73.9286 406.19 79.6591 409.431 79.638C414.026 79.6085 421.196 70.8853 421.196 70.8853Z" fill="#C7D8F0"/>
<path d="M406.397 192.961L405.574 187.67L396.441 243.503L406.397 192.961Z" fill="#1F253F"/>
<path d="M408.564 80.7846C409.474 80.7846 418.134 76.9794 421.901 70.9802C421.901 70.9802 420.602 61.9334 420.554 59.3274L404.766 60.8248C404.766 60.8248 405.454 73.5346 405.454 74.4197C405.454 75.3049 407.432 80.7836 408.563 80.7836L408.564 80.7846Z" fill="#AD6F4D"/>
<path d="M420.555 59.3274L420.885 63.1474C420.885 63.1474 414.6 70.5365 405.339 71.7389L404.768 60.8259L420.556 59.3284L420.555 59.3274Z" fill="#935533"/>
<path d="M405.171 70.4123C408.938 70.4123 418.799 67.0159 421.356 62.5953C423.912 58.1747 423.535 47.5377 422.876 43.7725C422.217 40.0074 418.356 35.2063 410.539 35.2063C402.723 35.2063 396.399 38.218 395.653 48.4788C394.906 58.7395 400.586 70.4123 405.171 70.4112V70.4123Z" fill="#AD6F4D"/>
<path d="M397.666 41.3382C397.666 41.3382 401.671 35.6477 416.644 42.0727C416.644 42.0727 417.089 50.7959 418.755 51.6843C418.755 51.6843 418.614 53.7665 419.956 53.9784C419.956 53.9784 419.499 50.66 421.67 50.66C423.841 50.66 423.205 54.8962 422.216 56.3789C422.216 56.3789 422.162 57.4569 422.824 57.9764C423.488 58.497 426.755 52.1184 426.294 42.5859C425.918 34.7963 417.976 33.6666 417.976 33.6666C417.976 33.6666 402.08 26.7769 396.716 36.632C394.411 40.8682 395.947 46.351 395.947 46.351C395.947 46.351 396.676 42.0684 397.665 41.3382H397.666Z" fill="#1F253F"/>
<path d="M363.551 136.926L439.395 119.322C440.547 119.054 441.699 119.772 441.966 120.924L442.08 121.413L364.149 139.501L363.551 136.925V136.926Z" fill="#423966"/>
<path d="M415.605 127.558L397.808 92.2152C397.375 91.3553 396.409 90.9021 395.471 91.1203L345.64 102.687C344.718 102.901 344.241 103.922 344.667 104.766L361.23 137.525C361.936 138.919 363.502 139.651 365.026 139.298L415.604 127.558H415.605Z" fill="#423966"/>
<path d="M378.233 117.687C379.336 117.279 379.751 115.653 379.159 114.055C378.568 112.458 377.193 111.494 376.09 111.903C374.986 112.311 374.572 113.937 375.163 115.535C375.755 117.132 377.129 118.096 378.233 117.687Z" fill="white"/>
<path d="M457.272 93.7073C457.272 93.7073 450.107 95.1573 445.013 101.935L453.217 112.336C453.217 112.336 437.018 122.675 423.109 124.667L423.981 132.378C423.981 132.378 458.245 125.854 466.576 121.896C472.808 118.935 471.506 112.431 468.284 108.316C465.061 104.201 457.273 93.7083 457.273 93.7083L457.272 93.7073Z" fill="#AD6F4D"/>
<path d="M424.213 124.49C424.213 124.49 422.201 125.015 420.875 123.959C419.549 122.904 418.799 121.61 415.84 122.116C412.881 122.623 414.665 123.918 414.665 123.918C414.665 123.918 412.138 124.431 410.957 125.425C409.777 126.42 409.583 129.284 410.76 131.305C411.936 133.326 413.453 136.783 425.077 132.147L424.211 124.491L424.213 124.49Z" fill="#AD6F4D"/>
<path d="M445.629 102.499C445.629 102.499 453.946 97.3639 459.152 96.209L458.464 95.4629C458.464 95.4629 452.672 96.504 445.629 102.5V102.499Z" fill="#935533"/>
<path d="M431.275 73.8644C431.275 73.8644 441.363 69.586 459.509 95.3438C459.509 95.3438 452.177 96.1858 443.668 104.268C443.668 104.268 430.856 90.5554 428.575 84.611C426.293 78.6665 431.274 73.8644 431.274 73.8644H431.275Z" fill="#299EF3"/>
<path d="M444.86 103.174L443.67 104.269C443.67 104.269 439.34 99.5642 435.881 95.3438C435.881 95.3438 442.392 101.488 444.86 103.174Z" fill="#1883D0"/>
<path d="M445.631 102.499C445.631 102.499 444.178 103.552 443.67 104.269C443.67 104.269 444.593 104.807 446.384 103.67L445.631 102.499Z" fill="#1883D0"/>
<path d="M459.51 95.3447C459.51 95.3447 459.495 95.7462 459.152 96.2088L458.465 95.4628L459.51 95.3447Z" fill="#1883D0"/>
<path d="M113.323 97.3257C113.323 97.3257 123.675 130.651 129.128 129.533C137.507 127.815 153.174 116.103 153.174 116.103C153.174 116.103 152.65 112.58 150.641 112.113C148.633 111.647 135.277 116.028 135.277 116.028L127.384 94.061L113.322 97.3257H113.323Z" fill="#F5AE84"/>
<path d="M105.57 179.878C105.57 179.878 103.796 221.081 100.562 242.75L96.7872 298.011H83.4637C83.4637 298.011 82.5149 268.572 81.4311 244.736C80.3474 220.9 78.7123 180.591 79.6157 165.603L110.249 166.162L105.57 179.879V179.878Z" fill="#423966"/>
<path d="M84.5629 299.816L83.9609 310.53L93.9572 308.664C93.9572 308.664 93.4154 304.149 93.3553 299.395L84.564 299.816H84.5629Z" fill="#F5AE84"/>
<path d="M132.483 306.497C132.483 306.497 131.038 303.006 131.399 297.228H121.644C121.644 297.228 120.937 306.032 120.877 309.402L132.484 306.497H132.483Z" fill="#F5AE84"/>
<path d="M120.861 306.618C120.861 306.618 125.197 308.243 132.001 305.293C132.001 305.293 137.361 307.701 141.756 310.349C143.781 311.569 146.037 312.368 147.88 312.874C150.092 313.482 151.631 315.475 151.631 317.768V318.836C151.631 319.634 150.984 320.281 150.186 320.281H120.077C119.279 320.281 118.631 319.634 118.631 318.836V315.525C118.631 315.525 118.391 311.131 120.859 306.617L120.861 306.618Z" fill="#423966"/>
<path d="M118.633 317.693H151.633V319.384C151.633 319.879 151.231 320.281 150.735 320.281H119.53C119.034 320.281 118.633 319.879 118.633 319.384V317.693Z" fill="#DADADA"/>
<path d="M134.814 306.24L134.463 306.014C134.382 305.962 134.274 305.985 134.222 306.066L132.453 308.807C132.401 308.888 132.424 308.997 132.505 309.049L132.856 309.275C132.937 309.328 133.046 309.304 133.098 309.223L134.867 306.482C134.919 306.401 134.896 306.293 134.814 306.24Z" fill="#1F253F"/>
<path d="M136.525 307.135L136.174 306.909C136.093 306.857 135.985 306.88 135.932 306.961L134.164 309.702C134.111 309.783 134.134 309.891 134.216 309.943L134.566 310.17C134.648 310.222 134.756 310.199 134.808 310.118L136.577 307.377C136.63 307.296 136.606 307.188 136.525 307.135Z" fill="#1F253F"/>
<path d="M138.474 308.091L138.124 307.865C138.042 307.813 137.934 307.836 137.882 307.917L136.113 310.658C136.061 310.739 136.084 310.848 136.165 310.9L136.516 311.126C136.598 311.178 136.706 311.155 136.758 311.074L138.527 308.333C138.579 308.252 138.556 308.144 138.474 308.091Z" fill="#1F253F"/>
<path d="M140.363 309.121L140.012 308.895C139.931 308.843 139.823 308.866 139.77 308.947L138.001 311.688C137.949 311.769 137.972 311.877 138.054 311.93L138.404 312.156C138.486 312.208 138.594 312.185 138.646 312.104L140.415 309.363C140.468 309.282 140.444 309.174 140.363 309.121Z" fill="#1F253F"/>
<path d="M142.498 309.926L142.147 309.699C142.066 309.647 141.958 309.67 141.905 309.752L140.137 312.492C140.084 312.574 140.108 312.682 140.189 312.734L140.54 312.96C140.621 313.013 140.729 312.989 140.782 312.908L142.55 310.167C142.603 310.086 142.579 309.978 142.498 309.926Z" fill="#1F253F"/>
<path d="M119.525 309.748C119.525 309.748 121.63 311.102 121.63 317.694H118.634C118.634 317.694 118.216 313.508 119.525 309.748Z" fill="#1F253F"/>
<path d="M125.237 307.802C123.948 307.802 122.52 307.629 120.98 307.183C120.692 307.099 120.525 306.799 120.61 306.51C120.693 306.222 120.995 306.056 121.282 306.139C127.503 307.94 131.805 304.884 131.848 304.853C132.09 304.677 132.431 304.73 132.607 304.973C132.783 305.215 132.73 305.555 132.488 305.731C132.34 305.839 129.578 307.801 125.238 307.801L125.237 307.802Z" fill="#1F253F"/>
<path d="M84.1409 307.641C84.1409 307.641 88.2957 309.567 93.8958 307.641C93.8958 307.641 100.64 313.78 100.399 318.987C100.159 324.194 97.3284 324.675 94.0761 324.916C90.8248 325.156 85.3449 322.689 83.2976 318.987C81.2502 315.285 84.1409 307.641 84.1409 307.641Z" fill="#423966"/>
<path d="M88.3089 309.11C85.4403 309.11 83.9264 308.285 83.8315 308.232C83.5701 308.084 83.4773 307.754 83.6249 307.492C83.7714 307.231 84.1014 307.138 84.3629 307.285C84.4124 307.312 87.6458 309.018 93.735 307.123C94.0197 307.034 94.3265 307.194 94.415 307.481C94.5036 307.767 94.3444 308.072 94.0576 308.16C91.7615 308.875 89.8417 309.11 88.3089 309.11Z" fill="#1F253F"/>
<path d="M94.2466 309.357L89.2835 310.437C89.2078 310.454 89.1598 310.528 89.1763 310.604L89.2476 310.931C89.2641 311.007 89.3388 311.055 89.4144 311.039L94.3775 309.959C94.4532 309.942 94.5012 309.868 94.4847 309.792L94.4134 309.464C94.397 309.389 94.3223 309.341 94.2466 309.357Z" fill="#1F253F"/>
<path d="M95.3911 310.772L90.428 311.852C90.3524 311.868 90.3044 311.943 90.3208 312.019L90.3921 312.346C90.4086 312.422 90.4833 312.47 90.559 312.453L95.5221 311.373C95.5977 311.357 95.6457 311.282 95.6293 311.207L95.558 310.879C95.5415 310.804 95.4668 310.756 95.3911 310.772Z" fill="#1F253F"/>
<path d="M96.3892 312.487L91.4261 313.567C91.3504 313.583 91.3024 313.658 91.3189 313.734L91.3902 314.061C91.4067 314.137 91.4814 314.185 91.557 314.168L96.5201 313.088C96.5958 313.072 96.6438 312.997 96.6273 312.921L96.556 312.594C96.5395 312.518 96.4648 312.47 96.3892 312.487Z" fill="#1F253F"/>
<path d="M97.8931 314.202L92.93 315.282C92.8543 315.299 92.8063 315.373 92.8228 315.449L92.8941 315.777C92.9106 315.852 92.9852 315.9 93.0609 315.884L98.024 314.804C98.0997 314.787 98.1477 314.713 98.1312 314.637L98.0599 314.31C98.0434 314.234 97.9688 314.186 97.8931 314.202Z" fill="#1F253F"/>
<path d="M82.6602 316.931C82.6602 316.931 87.9345 322.569 94.98 321.485C102.025 320.402 100.4 318.988 100.4 318.988C100.4 318.988 101.303 324.769 94.98 324.933C88.6567 325.098 83.2263 321.346 82.6602 316.932V316.931Z" fill="#DADADA"/>
<path d="M96.8724 296.927H83.0344C82.6152 296.927 82.2754 297.267 82.2754 297.686V301.044C82.2754 301.463 82.6152 301.803 83.0344 301.803H96.8724C97.2916 301.803 97.6315 301.463 97.6315 301.044V297.686C97.6315 297.267 97.2916 296.927 96.8724 296.927Z" fill="#1F253F"/>
<path d="M103.992 182.048C103.992 182.048 106.859 221.081 110.093 242.75L119.927 298.011H133.25C133.25 298.011 131.854 265.647 131.027 240.938C130.204 216.375 131.943 180.591 131.039 165.603L100.406 166.162L103.992 182.049V182.048Z" fill="#423966"/>
<path d="M119.954 301.803H133.792C134.211 301.803 134.551 301.463 134.551 301.044V297.686C134.551 297.267 134.211 296.927 133.792 296.927H119.954C119.535 296.927 119.195 297.267 119.195 297.686V301.044C119.195 301.463 119.535 301.803 119.954 301.803Z" fill="#1F253F"/>
<path d="M117.301 72.2803C117.301 72.2803 128.068 78.896 134.571 96.3224C134.571 96.3224 130.868 105.442 122.919 107.879C122.919 107.879 97.9513 81.3745 117.3 72.2803H117.301Z" fill="#299EF3"/>
<path d="M125.68 82.3049C125.68 82.3049 131.771 95.4457 132.434 105.951L125.68 107.067V82.3049Z" fill="#1883D0"/>
<path d="M103.059 67.159C95.8913 66.2085 92.0243 64.4887 86.9661 65.572C81.9079 66.6553 72.853 67.159 70.7213 75.466C67.9887 86.1146 76.8633 123.319 77.0447 139.571C77.1986 153.394 78.3319 162.251 78.6671 167.187C78.7188 167.953 79.3429 168.55 80.1104 168.575L129.489 169.143C130.499 169.154 131.32 168.336 131.306 167.326C131.226 161.471 130.937 151.127 130.336 130.721C129.614 106.163 135.756 71.4922 103.058 67.159H103.059Z" fill="#436B71"/>
<path d="M93.2239 64.6572L88.0645 65.3527L104.122 79.3555L106.469 75.3827L108.968 79.5061L112.103 69.3255L108.697 67.709C108.697 67.709 108.275 73.4574 105.024 73.4363C100.416 73.4068 93.2239 64.6572 93.2239 64.6572Z" fill="#C7D8F0"/>
<path d="M161.141 113.829L82.1009 113.761C81.4325 113.761 80.8906 114.302 80.8906 114.969V116.412L161.139 116.48L161.141 113.829Z" fill="#1F253F"/>
<path d="M108.154 116.435L117.553 77.8747C117.782 76.9358 118.623 76.2761 119.59 76.2761L170.903 76.3204C171.853 76.3204 172.549 77.2108 172.324 78.1329L163.545 113.889C163.171 115.412 161.806 116.481 160.237 116.48L108.154 116.436V116.435Z" fill="#1F253F"/>
<path d="M144.968 95.5624C145.186 93.8675 144.413 92.372 143.242 92.2221C142.072 92.0722 140.946 93.3247 140.729 95.0195C140.512 96.7144 141.285 98.2099 142.456 98.3598C143.626 98.5097 144.751 97.2572 144.968 95.5624Z" fill="#CFCBC3"/>
<path d="M60.2041 92.671C60.2041 92.671 67.1094 92.5667 73.6204 98.0401L65.624 109.678C65.624 109.678 86.1247 116.501 100.167 115.304L101.059 123.038C101.059 123.038 66.2133 123.784 57.0636 122.418C47.9138 121.053 49.1357 113.652 51.3549 108.901C53.574 104.152 60.2052 92.671 60.2052 92.671H60.2041Z" fill="#F5AE84"/>
<path d="M99.0488 115.382C99.0488 115.382 101.133 115.442 102.19 114.11C103.248 112.778 103.687 111.345 106.694 111.171C109.701 110.998 108.25 112.667 108.25 112.667C108.25 112.667 110.836 112.596 112.214 113.301C113.592 114.006 114.429 116.763 113.736 119.003C113.044 121.244 112.343 124.964 99.9344 123.061L99.0488 115.382Z" fill="#F5AE84"/>
<path d="M73.1459 98.7302C73.1459 98.7302 63.856 95.591 58.5078 95.6384L59.0107 94.7532C59.0107 94.7532 64.9071 94.4624 73.1449 98.7302H73.1459Z" fill="#E59C77"/>
<path d="M80.6986 67.5034C80.6986 67.5034 69.8716 65.6013 57.9629 94.8745C57.9629 94.8745 65.3194 94.041 75.4612 100.017C75.4612 100.017 84.8808 83.7202 85.7653 77.3964C86.6498 71.0716 80.6976 67.5034 80.6976 67.5034H80.6986Z" fill="#436B71"/>
<path opacity="0.2" d="M74.0488 99.2161L75.4594 100.017C75.4594 100.017 79.3506 94.786 81.0521 89.5339C81.0521 89.5339 76.0782 97.0095 74.0488 99.2151V99.2161Z" fill="#1F253F"/>
<path opacity="0.2" d="M73.1443 98.7303C73.1443 98.7303 74.8026 99.43 75.4604 100.017C75.4604 100.017 74.5707 100.279 72.5645 99.5733L73.1443 98.7292V98.7303Z" fill="#1F253F"/>
<path d="M57.962 94.8746C57.962 94.8746 58.0674 95.2645 58.506 95.6386L59.0089 94.7534L57.9609 94.8746H57.962Z" fill="#1F253F"/>
<path d="M121.685 34.1459C121.685 34.1459 123.959 38.8426 122.069 45.9273C122.069 45.9273 124.184 49.9338 123.966 52.5977C123.894 53.4713 120.903 53.6378 120.903 53.6378C120.903 53.6378 119.975 58.3599 119.553 60.2198C119.13 62.0797 118.802 63.6088 116.437 63.5508C114.074 63.4929 111.495 62.5697 110.188 64.4918C108.88 66.414 108.316 69.8272 108.316 69.8272C107.96 72.2804 107.392 73.4006 105.025 73.4364C100.459 73.5059 94.0822 66.8144 92.8867 64.8048C92.8867 64.8048 97.8807 53.779 95.8723 47.7292C93.8629 41.6794 94.1307 33.4483 99.773 30.6621C105.415 27.8759 119.16 26.9707 121.686 34.1449L121.685 34.1459Z" fill="#F5AE84"/>
<path d="M101.226 50.9412C101.226 50.9412 102.05 51.6177 102.381 51.7126C102.381 51.7126 102.353 55.3629 102.763 56.1406C103.173 56.9183 109.137 61.8079 114.964 63.3622C114.964 63.3622 112.646 63.4549 103.505 59.3599C101.596 58.5042 99.3914 60.2925 99.2111 61.0344C98.393 64.3896 100.329 71.8115 100.329 71.8115C100.329 71.8115 96.5607 69.6765 92.8867 64.8059C92.8867 64.8059 95.5782 59.5117 96.3478 51.0213C96.6156 48.0633 101.227 50.9412 101.227 50.9412H101.226Z" fill="#E59C77"/>
<path d="M122.29 28.407C121.094 26.1846 118.07 27.1109 113.501 26.7378C108.932 26.3637 103.365 22.9031 98.5597 27.6262C98.5597 27.6262 93.4413 28.8612 92.4988 35.4137C91.5564 41.9661 94.8235 47.6798 94.8235 47.6798C95.2388 49.3395 95.9947 51.602 96.7685 51.6599C98.9919 51.8254 101.227 50.9423 101.227 50.9423C101.227 50.9423 97.1154 47.4269 97.5033 44.3466C97.8913 41.2664 100.821 41.8439 101.471 42.1685C102.122 42.492 103.602 43.4246 103.515 44.5005C103.427 45.5753 104.179 47.0591 104.179 47.0591C104.179 47.0591 106.667 46.411 105.556 41.8829C105.556 41.8829 107.469 41.6964 108.839 38.0197C109.793 35.459 109.094 33.8446 109.962 34.2724C110.911 34.7382 112.273 34.9342 113.757 35.029C113.757 35.029 120.63 34.3493 122.554 33.3662C124.373 32.4367 123.487 30.6316 122.293 28.4081L122.29 28.407Z" fill="#1F253F"/>
<path d="M106.477 41.4761C106.477 41.4761 105.98 47.0495 106.002 48.6503C106.025 50.251 107.964 54.8096 111.695 55.3186C115.426 55.8276 120.904 53.6378 120.904 53.6378C120.904 53.6378 120.566 57.5189 120.684 59.6824C120.802 61.8458 121.405 64.5698 118.773 67.2675C116.142 69.9642 99.9099 66.0177 101.056 57.0078C102.202 47.998 104.409 50.1119 103.514 44.4994C102.619 38.8869 106.478 41.4771 106.478 41.4771L106.477 41.4761Z" fill="#1F253F"/>
<path d="M168.487 108.588C169.058 105.681 169.598 101.988 169.189 100.658C168.78 99.327 162.098 97.643 160.907 97.7494C159.715 97.8559 159.606 98.9392 160.072 99.3891C160.538 99.8391 164.416 101.42 164.416 101.42C164.416 101.42 159.487 100.226 158.718 100.313C157.95 100.401 157.739 101.609 158.029 102.092C158.319 102.575 165.115 103.938 165.115 103.938C165.115 103.938 160.858 103.228 159.759 103.248C158.659 103.268 158.721 104.967 159.715 105.169C160.709 105.371 165.005 106.744 165.005 106.744C165.005 106.744 160.829 105.974 160.224 106.004C159.62 106.033 159.341 107.522 160.212 107.764C161.084 108.005 164.97 109.645 166.434 109.68C167.899 109.716 168.484 108.588 168.484 108.588H168.487Z" fill="#F5AE84"/>
</svg>
